<?xml version="1.0" standalone="no"?>
<!DOCTYPE svg PUBLIC "-//W3C//DTD SVG 20010904//EN"
 "http://www.w3.org/TR/2001/REC-SVG-20010904/DTD/svg10.dtd">
<svg version="1.0" xmlns="http://www.w3.org/2000/svg"
 width="2362.000000pt" height="315.000000pt" viewBox="0 0 2362.000000 315.000000"
 preserveAspectRatio="xMidYMid meet">
<metadata>
Created by potrace 1.16, written by Peter Selinger 2001-2019
</metadata>
<g transform="translate(0.000000,315.000000) scale(0.100000,-0.100000)"
fill="#000000" stroke="none">
<path d="M16669 2817 c-60 -17 -103 -49 -123 -91 -30 -64 -17 -135 36 -182 31
-27 66 -40 163 -58 126 -23 147 -35 160 -87 18 -72 -59 -124 -172 -117 -63 3
-84 11 -196 66 -5 2 -7 -18 -5 -44 l3 -49 55 -19 c38 -13 84 -19 150 -20 83
-1 101 2 145 25 82 42 120 120 96 200 -21 69 -69 93 -265 130 -38 7 -67 20
-82 35 -43 42 -25 107 36 139 59 30 205 11 264 -36 l26 -20 0 50 0 50 -52 16
c-75 22 -184 28 -239 12z"/>
<path d="M4750 2520 l0 -300 35 0 35 0 2 258 3 257 85 -172 c71 -146 88 -173
106 -173 19 0 36 27 107 173 l85 172 1 -257 1 -258 40 0 40 0 0 300 0 300 -56
0 -55 0 -56 -117 c-30 -65 -66 -140 -78 -168 l-23 -50 -82 168 -81 167 -54 0
-55 0 0 -300z"/>
<path d="M5740 2519 l0 -301 153 4 c138 3 157 5 202 28 29 14 60 40 73 60 20
30 23 45 20 102 -4 75 -26 109 -86 135 l-34 14 36 39 c31 35 36 47 36 91 0 99
-66 129 -280 129 l-120 0 0 -301z m294 210 c19 -15 26 -30 26 -54 0 -75 -32
-95 -155 -95 l-85 0 0 85 0 85 94 0 c79 0 97 -3 120 -21z m26 -234 c38 -20 50
-43 50 -98 0 -79 -52 -107 -196 -107 l-94 0 0 110 0 110 105 0 c75 0 115 -4
135 -15z"/>
<path d="M6755 2803 c-3 -10 -40 -108 -80 -218 -40 -110 -87 -237 -104 -283
l-31 -83 42 3 c38 3 42 6 55 43 7 22 20 59 29 83 l16 43 131 -3 132 -3 29 -82
28 -83 39 0 c22 0 39 3 39 8 0 4 -48 139 -107 300 l-107 292 -52 0 c-40 0 -53
-4 -59 -17z m112 -203 l50 -140 -104 0 c-79 0 -104 3 -101 13 11 44 94 267 99
267 3 0 29 -63 56 -140z"/>
<path d="M7470 2521 l0 -301 40 0 40 0 0 120 0 120 58 0 58 0 100 -120 99
-120 48 0 c26 0 47 3 47 6 0 3 -47 60 -105 126 -58 67 -105 124 -105 127 0 3
16 16 35 29 54 35 75 76 75 149 0 52 -4 66 -26 93 -46 54 -75 63 -226 68
l-138 5 0 -302z m284 200 c39 -36 37 -108 -3 -153 -28 -32 -33 -33 -115 -37
l-86 -3 0 112 0 112 89 -4 c78 -3 93 -6 115 -27z"/>
<path d="M8485 2803 c-3 -10 -40 -108 -80 -218 -40 -110 -87 -237 -104 -283
l-31 -83 42 3 c38 3 42 6 55 43 7 22 20 59 29 83 l16 43 131 -3 132 -3 29 -82
28 -83 39 0 c22 0 39 3 39 8 0 4 -48 139 -107 300 l-107 292 -52 0 c-40 0 -53
-4 -59 -17z m112 -203 l50 -140 -104 0 c-79 0 -104 3 -101 13 11 44 94 267 99
267 3 0 29 -63 56 -140z"/>
<path d="M9210 2521 l0 -301 40 0 40 0 0 120 0 120 58 0 58 0 100 -120 99
-120 48 0 c26 0 47 3 47 6 0 3 -47 60 -105 126 -58 67 -105 124 -105 127 0 3
16 16 35 29 54 35 75 76 75 149 0 52 -4 66 -26 93 -46 54 -75 63 -226 68
l-138 5 0 -302z m284 200 c39 -36 37 -108 -3 -153 -28 -32 -33 -33 -115 -37
l-86 -3 0 112 0 112 89 -4 c78 -3 93 -6 115 -27z"/>
<path d="M10225 2803 c-3 -10 -40 -108 -80 -218 -40 -110 -87 -237 -104 -283
l-31 -83 42 3 c38 3 42 6 55 43 7 22 20 59 29 83 l16 43 131 -3 132 -3 29 -82
28 -83 39 0 c22 0 39 3 39 8 0 4 -48 139 -107 300 l-107 292 -52 0 c-40 0 -53
-4 -59 -17z m112 -203 l50 -140 -104 0 c-79 0 -104 3 -101 13 11 44 94 267 99
267 3 0 29 -63 56 -140z"/>
<path d="M11522 2598 c4 -251 14 -291 80 -341 92 -70 277 -53 336 30 37 54 42
90 42 314 l0 219 -34 0 -34 0 -4 -217 c-2 -169 -6 -225 -18 -248 -48 -95 -211
-102 -265 -12 -18 29 -20 55 -23 255 l-3 222 -41 0 -40 0 4 -222z"/>
<path d="M12430 2520 l0 -300 35 0 35 0 0 268 c1 236 2 265 15 248 8 -11 74
-131 147 -268 l132 -248 48 0 48 0 0 300 0 300 -35 0 -35 0 0 -242 c-1 -203
-3 -240 -14 -226 -7 10 -67 119 -132 243 l-119 225 -62 0 -63 0 0 -300z"/>
<path d="M13330 2790 c0 -28 2 -30 40 -30 l40 0 0 -240 0 -240 -40 0 c-38 0
-40 -2 -40 -30 l0 -30 115 0 115 0 0 30 c0 28 -2 30 -40 30 l-40 0 0 240 0
240 40 0 c38 0 40 2 40 30 l0 30 -115 0 -115 0 0 -30z"/>
<path d="M13931 2793 c11 -27 181 -489 201 -545 9 -26 14 -28 62 -28 l52 0
107 293 c59 161 107 296 107 300 0 4 -17 7 -37 7 l-38 0 -89 -253 c-49 -138
-92 -256 -96 -260 -9 -10 -12 -1 -121 305 l-74 208 -42 0 c-42 0 -42 0 -32
-27z"/>
<path d="M14850 2520 l0 -300 200 0 200 0 0 35 0 35 -160 0 -160 0 0 110 0
110 160 0 160 0 0 35 0 35 -160 0 -160 0 0 85 0 85 160 0 160 0 0 35 0 35
-200 0 -200 0 0 -300z"/>
<path d="M15670 2521 l0 -301 40 0 40 0 0 120 0 120 58 0 58 0 100 -120 99
-120 48 0 c26 0 47 3 47 6 0 3 -47 60 -105 126 -58 67 -105 124 -105 127 0 3
16 16 35 29 54 35 75 76 75 149 0 52 -4 66 -26 93 -46 54 -75 63 -226 68
l-138 5 0 -302z m284 200 c39 -36 37 -108 -3 -153 -28 -32 -33 -33 -115 -37
l-86 -3 0 112 0 112 89 -4 c78 -3 93 -6 115 -27z"/>
<path d="M17390 2790 c0 -28 2 -30 40 -30 l40 0 0 -240 0 -240 -40 0 c-38 0
-40 -2 -40 -30 l0 -30 115 0 115 0 0 30 c0 28 -2 30 -40 30 l-40 0 0 240 0
240 40 0 c38 0 40 2 40 30 l0 30 -115 0 -115 0 0 -30z"/>
<path d="M17970 2785 l0 -35 110 0 110 0 0 -265 0 -265 35 0 35 0 0 265 0 265
110 0 110 0 0 35 0 35 -255 0 -255 0 0 -35z"/>
<path d="M18790 2815 c0 -3 47 -82 105 -175 l105 -170 0 -125 0 -125 35 0 35
0 0 128 0 128 105 167 c58 92 105 169 105 172 0 3 -17 5 -38 5 l-39 0 -83
-136 c-57 -92 -86 -131 -91 -122 -5 7 -41 67 -82 133 l-74 120 -41 3 c-23 2
-42 1 -42 -3z"/>
<path d="M2740 2470 c-119 -5 -125 -6 -125 -26 0 -11 -6 -28 -13 -37 -12 -14
-12 -19 2 -32 21 -21 20 -32 -1 -44 -17 -9 -17 -10 0 -28 21 -24 21 -28 2 -47
-14 -14 -14 -18 0 -40 9 -14 14 -29 11 -34 -17 -27 27 -32 260 -30 l239 3 3
30 c2 16 11 35 20 42 16 12 16 14 0 24 -22 12 -23 38 -3 45 8 4 15 12 15 19 0
7 -7 15 -15 19 -20 7 -19 26 3 42 16 13 16 15 0 28 -10 7 -18 25 -18 39 l0 26
-127 3 c-71 2 -184 1 -253 -2z m335 -155 l0 -120 -207 -2 -208 -3 0 118 c0 65
3 122 7 125 3 4 96 6 207 4 l201 -2 0 -120z"/>
<path d="M2390 1580 c0 -581 -5 -545 86 -580 45 -16 78 -20 184 -20 132 0 173
-8 197 -38 11 -13 16 -14 19 -4 13 29 53 37 209 42 130 4 167 9 199 24 67 34
67 26 64 583 l-3 498 -477 3 -478 2 0 -510z m931 486 c2 -2 2 -117 -1 -256
l-5 -251 -215 0 -215 0 -3 256 -2 255 218 0 c120 0 221 -2 223 -4z m-662 -143
c12 -24 35 -172 28 -179 -11 -12 -27 8 -39 50 -12 39 -15 43 -36 35 -26 -10
-46 -54 -37 -86 8 -34 41 -47 134 -53 55 -3 86 -9 89 -17 3 -12 -60 -15 -263
-15 -28 0 -35 2 -35 12 0 6 14 10 30 10 33 0 38 14 15 44 -8 11 -15 32 -15 47
0 32 42 87 77 100 13 5 23 15 22 21 -3 27 1 48 11 48 5 0 13 -8 19 -17z m201
-669 c0 -259 -1 -276 -17 -268 -10 4 -88 11 -173 15 -181 9 -201 13 -235 46
l-25 26 0 228 0 229 225 0 225 0 0 -276z m250 213 c0 -7 16 -21 36 -31 20 -9
33 -20 30 -24 -4 -3 -38 -5 -76 -4 -71 3 -92 -7 -70 -33 19 -23 50 -19 50 6 0
12 5 19 13 16 6 -2 11 -10 9 -16 -1 -7 13 -18 31 -26 50 -21 64 -41 43 -64 -9
-10 -30 -21 -46 -24 -28 -6 -29 -8 -26 -54 4 -58 -4 -113 -15 -113 -5 0 -9 16
-9 35 0 25 -4 35 -16 35 -8 0 -29 14 -46 30 -28 28 -29 32 -15 53 8 12 30 27
48 32 27 8 33 14 31 33 -3 17 -10 22 -34 22 -32 0 -68 24 -68 45 0 18 42 53
73 60 15 4 27 13 27 21 0 8 7 14 15 14 8 0 15 -6 15 -13z"/>
<path d="M2969 1898 c-1 -7 0 -25 1 -40 1 -22 -3 -28 -18 -28 -32 0 -35 -47
-5 -73 16 -14 23 -30 21 -47 -3 -37 9 -50 47 -50 24 0 38 6 45 20 6 11 17 20
25 20 9 0 23 -9 32 -20 12 -13 29 -20 53 -19 30 0 32 2 14 9 -12 5 -25 13 -29
19 -3 6 -15 11 -26 11 -28 0 -18 24 11 28 16 3 19 6 10 12 -7 4 -9 13 -6 19
10 15 26 14 26 -3 0 -7 7 -19 15 -26 9 -8 15 -8 15 -2 0 6 10 12 23 14 15 2
23 11 25 28 4 38 -42 75 -93 75 -29 0 -40 4 -40 15 0 8 10 16 23 18 12 2 22 8
22 13 0 17 38 9 44 -8 4 -14 4 -14 3 2 -3 30 -74 34 -94 6 -8 -12 -20 -21 -27
-21 -8 0 -17 -7 -20 -16 -4 -11 -17 -14 -43 -12 -33 3 -38 7 -41 31 -2 19 1
27 12 27 8 0 18 -4 21 -10 9 -15 47 -12 43 3 -6 17 -88 22 -89 5z"/>
<path d="M2632 1450 c-7 -11 -18 -20 -25 -20 -16 0 -67 -52 -67 -67 0 -7 -10
-19 -22 -28 -16 -12 -19 -19 -10 -22 7 -3 21 -22 32 -44 13 -25 35 -46 60 -59
22 -11 40 -25 40 -30 0 -6 5 -10 10 -10 6 0 10 7 10 15 0 8 6 15 14 15 23 0
68 42 82 77 8 19 22 33 32 34 14 0 13 3 -5 16 -13 8 -23 21 -23 28 0 22 -48
72 -75 79 -14 4 -25 13 -25 21 0 21 -13 19 -28 -5z"/>
<path d="M2005 1433 c4 -10 11 -36 16 -58 9 -50 55 -173 71 -192 8 -10 8 -20
-2 -38 -12 -22 -9 -29 30 -80 130 -169 293 -291 460 -344 159 -51 296 -62 435
-36 259 49 443 164 605 378 38 51 42 60 31 80 -10 18 -8 29 9 64 23 48 45 111
58 168 5 22 13 48 17 58 14 33 -14 17 -71 -43 -31 -33 -60 -60 -64 -60 -8 0
-20 30 -29 74 -9 42 -31 46 -31 5 0 -43 -26 -111 -67 -176 -23 -36 -32 -60
-28 -75 5 -18 -6 -36 -45 -80 -190 -214 -493 -292 -766 -197 -99 34 -218 113
-289 192 -55 60 -64 80 -45 92 6 4 -1 23 -18 48 -15 23 -36 62 -46 87 -10 25
-22 53 -27 62 -5 10 -9 35 -9 55 -1 36 -2 37 -15 19 -19 -25 -19 -55 0 -62 8
-4 15 -14 15 -23 0 -9 12 -38 25 -66 30 -60 30 -65 8 -65 -10 0 -38 -11 -62
-25 -23 -14 -47 -25 -52 -25 -10 0 -28 39 -65 140 -39 105 -33 113 35 46 57
-57 59 -58 71 -37 6 12 9 30 7 39 -3 14 -6 12 -14 -8 -10 -24 -10 -24 -75 38
-66 63 -86 75 -73 45z m1681 -115 c-36 -106 -55 -148 -66 -148 -5 0 -31 13
-57 28 -27 16 -54 27 -61 24 -16 -5 -16 -2 12 50 13 25 26 56 28 69 5 34 25
34 33 0 4 -17 10 -33 14 -35 4 -3 32 20 62 50 29 30 55 50 57 45 2 -6 -8 -43
-22 -83z m-1418 -175 c95 -139 237 -238 422 -294 60 -19 299 -19 360 0 186 56
324 152 421 294 22 31 42 57 44 57 15 0 125 -67 125 -75 0 -17 -97 -135 -159
-193 -81 -77 -267 -192 -310 -192 -6 0 -19 -4 -29 -9 -65 -34 -289 -58 -377
-41 -120 24 -161 34 -170 42 -5 4 -16 8 -24 8 -19 0 -113 46 -180 88 -91 58
-291 263 -291 298 0 9 107 73 122 74 4 0 25 -26 46 -57z"/>
<path d="M4884 1291 c-46 -12 -106 -49 -129 -79 -28 -38 -28 -130 1 -169 31
-41 86 -68 167 -82 109 -19 146 -32 168 -59 23 -29 24 -53 4 -91 -22 -44 -75
-64 -159 -59 -67 3 -85 9 -199 66 -5 2 -7 -18 -5 -44 l3 -49 55 -19 c38 -13
84 -19 150 -20 84 0 101 2 146 26 67 35 98 84 98 154 0 95 -45 130 -215 164
-115 23 -146 38 -155 77 -10 38 7 74 46 101 31 21 44 23 110 20 67 -4 103 -15
183 -56 4 -2 7 17 7 42 l0 45 -52 16 c-64 19 -181 27 -224 16z"/>
<path d="M17341 1284 c-30 -8 -70 -24 -89 -36 -134 -83 -165 -339 -56 -466 85
-100 232 -125 399 -70 l65 21 0 128 0 129 -115 0 -115 0 0 -35 0 -35 80 0 80
0 0 -70 c0 -85 -8 -91 -123 -98 -97 -6 -153 13 -200 69 -40 46 -57 97 -57 170
0 75 16 123 53 166 80 91 236 99 360 17 l37 -24 0 48 c0 49 -1 49 -42 65 -98
38 -190 45 -277 21z"/>
<path d="M18870 1291 c-59 -12 -109 -41 -150 -89 -48 -54 -70 -121 -70 -212 0
-136 49 -229 147 -276 79 -39 197 -41 288 -3 l60 24 3 47 3 47 -57 -34 c-66
-40 -104 -49 -179 -43 -110 9 -174 84 -183 213 -8 121 28 202 108 243 38 20
56 23 115 19 68 -4 113 -20 173 -63 22 -16 22 -16 22 30 0 43 -2 47 -37 65
-71 35 -164 47 -243 32z"/>
<path d="M5530 1255 l0 -35 110 0 110 0 0 -265 0 -265 35 0 35 0 0 265 0 265
110 0 110 0 0 35 0 35 -255 0 -255 0 0 -35z"/>
<path d="M6402 1068 c5 -276 16 -310 113 -361 58 -30 183 -30 242 1 90 47 103
94 103 370 l0 212 -35 0 -35 0 0 -196 c0 -218 -8 -269 -51 -310 -38 -37 -127
-45 -184 -18 -67 31 -75 65 -75 312 l0 212 -41 0 -41 0 4 -222z"/>
<path d="M7320 990 l0 -300 103 0 c118 0 206 14 257 40 145 75 194 295 97 436
-61 89 -163 124 -359 124 l-98 0 0 -300z m317 202 c71 -37 113 -111 113 -201
0 -98 -37 -163 -114 -203 -31 -17 -64 -23 -138 -26 l-98 -4 0 232 0 232 98 -4
c74 -3 107 -9 139 -26z"/>
<path d="M8250 990 l0 -300 200 0 200 0 0 35 0 35 -160 0 -160 0 0 110 0 110
160 0 160 0 0 35 0 35 -160 0 -160 0 0 85 0 85 160 0 160 0 0 35 0 35 -200 0
-200 0 0 -300z"/>
<path d="M9070 990 l0 -300 35 0 35 0 0 268 c1 236 2 265 15 248 8 -11 74
-131 147 -268 l132 -248 48 0 48 0 0 300 0 300 -35 0 -35 0 0 -242 c-1 -203
-3 -240 -14 -226 -7 10 -67 119 -132 243 l-119 225 -62 0 -63 0 0 -300z"/>
<path d="M9910 1255 l0 -35 110 0 110 0 0 -265 0 -265 35 0 35 0 0 265 0 265
110 0 110 0 0 35 0 35 -255 0 -255 0 0 -35z"/>
<path d="M11380 990 l0 -300 190 0 190 0 0 35 0 35 -150 0 -150 0 0 265 0 265
-40 0 -40 0 0 -300z"/>
<path d="M12130 990 l0 -300 200 0 200 0 0 35 0 35 -160 0 -160 0 0 110 0 110
160 0 160 0 0 35 0 35 -160 0 -160 0 0 85 0 85 160 0 160 0 0 35 0 35 -200 0
-200 0 0 -300z"/>
<path d="M13044 1133 c-31 -87 -81 -221 -109 -298 l-52 -140 34 -3 c19 -2 37
-1 40 2 3 3 18 40 33 83 l28 78 133 3 134 3 29 -86 29 -85 38 0 c22 0 39 3 39
7 0 3 -48 138 -107 300 l-108 293 -51 0 -52 0 -58 -157z m163 -60 l49 -138
-99 -3 c-55 -1 -102 -1 -104 2 -6 6 90 276 98 276 4 0 29 -62 56 -137z"/>
<path d="M13810 990 l0 -300 40 0 40 0 0 120 0 120 58 0 59 0 99 -119 99 -120
48 0 c26 -1 47 1 47 4 0 3 -49 62 -110 132 l-110 127 37 20 c58 34 77 67 81
146 4 70 4 70 -34 109 -48 48 -103 61 -249 61 l-105 0 0 -300z m284 201 c39
-36 37 -108 -3 -153 -28 -32 -33 -33 -115 -37 l-86 -3 0 112 0 112 89 -4 c78
-3 93 -6 115 -27z"/>
<path d="M14680 990 l0 -300 35 0 35 0 0 268 c1 236 2 265 15 248 8 -11 74
-131 147 -268 l132 -248 48 0 48 0 0 300 0 300 -35 0 -35 0 0 -242 c-1 -203
-3 -240 -14 -226 -7 10 -67 119 -132 243 l-119 225 -62 0 -63 0 0 -300z"/>
<path d="M15580 1260 c0 -28 2 -30 40 -30 l40 0 0 -240 0 -240 -40 0 c-38 0
-40 -2 -40 -30 l0 -30 115 0 115 0 0 30 c0 28 -2 30 -40 30 l-40 0 0 240 0
240 40 0 c38 0 40 2 40 30 l0 30 -115 0 -115 0 0 -30z"/>
<path d="M16240 990 l0 -300 35 0 35 0 0 268 c1 236 2 265 15 248 8 -11 74
-131 147 -268 l132 -248 48 0 48 0 0 300 0 300 -35 0 -35 0 0 -242 c-1 -203
-3 -240 -14 -226 -7 10 -67 119 -132 243 l-119 225 -62 0 -63 0 0 -300z"/>
<path d="M19560 990 l0 -300 200 0 200 0 0 35 0 35 -160 0 -160 0 0 110 0 110
160 0 160 0 0 35 0 35 -160 0 -160 0 0 85 0 85 160 0 160 0 0 35 0 35 -200 0
-200 0 0 -300z"/>
<path d="M20380 990 l0 -300 35 0 35 0 0 268 c1 236 2 265 15 248 8 -11 74
-131 147 -268 l132 -248 48 0 48 0 0 300 0 300 -35 0 -35 0 0 -242 c-1 -203
-3 -240 -14 -226 -7 10 -67 119 -132 243 l-119 225 -62 0 -63 0 0 -300z"/>
<path d="M21210 1255 l0 -35 110 0 110 0 0 -265 0 -265 35 0 35 0 0 265 0 265
110 0 110 0 0 35 0 35 -255 0 -255 0 0 -35z"/>
<path d="M22100 990 l0 -300 200 0 200 0 0 35 0 35 -160 0 -160 0 0 110 0 110
160 0 160 0 0 35 0 35 -160 0 -160 0 0 85 0 85 160 0 160 0 0 35 0 35 -200 0
-200 0 0 -300z"/>
</g>
</svg>
