<?xml version="1.0" standalone="no"?>
<!DOCTYPE svg PUBLIC "-//W3C//DTD SVG 20010904//EN"
 "http://www.w3.org/TR/2001/REC-SVG-20010904/DTD/svg10.dtd">
<svg version="1.0" xmlns="http://www.w3.org/2000/svg"
 width="168.000000pt" height="157.000000pt" viewBox="0 0 168.000000 157.000000"
 preserveAspectRatio="xMidYMid meet">
<metadata>
Created by potrace 1.16, written by Peter Selinger 2001-2019
</metadata>
<g transform="translate(0.000000,157.000000) scale(0.100000,-0.100000)"
fill="#000000" stroke="none">
<path d="M659 1300 c-1 -11 -1 -42 -1 -70 0 -100 -17 -90 150 -90 146 0 147 0
158 24 8 18 8 28 0 36 -8 8 -7 13 4 20 13 9 13 11 0 20 -11 7 -12 12 -4 20 8
8 8 18 0 36 -11 24 -12 24 -158 24 -141 0 -148 -1 -149 -20z m281 -70 l0 -70
-125 0 -125 0 0 70 0 69 125 0 125 0 0 -69z"/>
<path d="M530 809 c0 -170 4 -298 10 -309 14 -27 64 -40 154 -40 54 0 88 -5
102 -14 17 -12 22 -12 39 0 12 9 46 14 100 14 98 0 143 14 156 47 5 13 9 152
9 309 l0 284 -285 0 -285 0 0 -291z m550 131 l0 -150 -130 0 -130 0 0 150 0
150 130 0 130 0 0 -150z m-270 -319 l0 -159 -42 4 c-24 2 -73 5 -110 8 -40 2
-78 11 -93 20 -25 16 -25 19 -25 151 l0 135 135 0 135 0 0 -159z"/>
<path d="M658 721 c-15 -9 -31 -26 -37 -38 -6 -13 -16 -23 -22 -23 -6 0 10
-21 36 -46 26 -25 50 -42 54 -37 3 4 15 13 25 19 11 6 24 19 30 30 6 10 16 22
21 26 7 5 7 8 0 8 -6 0 -15 10 -20 22 -6 12 -19 26 -30 32 -11 6 -22 14 -25
17 -3 3 -17 -2 -32 -10z"/>
<path d="M72 770 c-2 -153 13 -222 73 -345 79 -161 189 -270 353 -347 105 -50
190 -68 322 -68 132 0 217 18 322 68 165 78 274 185 353 347 60 123 75 193 73
345 l-1 125 -7 -120 c-20 -328 -209 -579 -515 -682 -72 -24 -94 -27 -225 -27
-131 0 -153 3 -225 27 -306 103 -495 354 -515 682 l-7 120 -1 -125z"/>
</g>
</svg>
